<?xml version="1.0" encoding="iso-8859-1"?>
<!-- Generator: Adobe Illustrator 19.0.0, SVG Export Plug-In . SVG Version: 6.00 Build 0)  -->
<svg version="1.1" id="Capa_1" xmlns="http://www.w3.org/2000/svg" xmlns:xlink="http://www.w3.org/1999/xlink" x="0px" y="0px"
	 viewBox="0 0 58.243 58.243" style="enable-background:new 0 0 58.243 58.243;" xml:space="preserve">
<path style="fill:#4482C3;" d="M49.071,29.121l8.878-8.879c0.391-0.391,0.391-1.023,0-1.414L55.122,16
	c-0.195-0.195-0.451-0.293-0.707-0.293S53.903,15.805,53.708,16l-9.861,9.861c-5.889-4.492-13.259-6.957-20.857-6.957
	c-8.969,0-16.379,3.333-22.682,9.385C0.111,28.478,0,28.739,0,29.011s0.111,0.533,0.308,0.722
	c6.303,6.052,13.714,9.386,22.684,9.386c7.54,0,14.865-2.431,20.73-6.861l9.985,9.985c0.195,0.195,0.451,0.293,0.707,0.293
	s0.512-0.098,0.707-0.293l2.828-2.828c0.391-0.391,0.391-1.023,0-1.414L49.071,29.121z M23,34.121
	c-6.018,0-11.184-1.746-15.935-4.985c-0.086-0.059-0.086-0.192,0-0.251c4.751-3.239,9.917-4.985,15.935-4.985
	c6.096,0,11.881,1.791,16.694,5.11C34.881,32.33,29.096,34.121,23,34.121z"/>
<g>
</g>
<g>
</g>
<g>
</g>
<g>
</g>
<g>
</g>
<g>
</g>
<g>
</g>
<g>
</g>
<g>
</g>
<g>
</g>
<g>
</g>
<g>
</g>
<g>
</g>
<g>
</g>
<g>
</g>
</svg>
